<svg width="1920" height="850" viewBox="0 0 1920 850" fill="none" xmlns="http://www.w3.org/2000/svg">
<path d="M1920 29L1915.19 29.4555L1910.38 29.9109L1905.56 30.3661L1900.75 30.8209L1895.94 31.2753L1891.13 31.7291L1886.32 32.1823L1881.5 32.6346L1876.69 33.0861L1871.88 33.5366L1867.07 33.986L1862.26 34.4341L1857.44 34.8808L1852.63 35.3262L1847.82 35.7699L1843.01 36.212L1838.2 36.6523L1833.38 37.0908L1828.57 37.5272L1823.76 37.9615L1818.95 38.3936L1814.14 38.8234L1809.32 39.2508L1804.51 39.6756L1799.7 40.0978L1794.89 40.5173L1790.08 40.9339L1785.26 41.3476L1780.45 41.7582L1775.64 42.1657L1770.83 42.5699L1766.02 42.9709L1761.2 43.3683L1756.39 43.7622L1751.58 44.1525L1746.77 44.5389L1741.95 44.9216L1737.14 45.3004L1732.33 45.6752L1727.52 46.0458L1722.71 46.4122L1717.89 46.7743L1713.08 47.132L1708.27 47.4853L1703.46 47.834L1698.65 48.178L1693.83 48.5173L1689.02 48.8519L1684.21 49.1815L1679.4 49.5061L1674.59 49.8257L1669.77 50.1401L1664.96 50.4493L1660.15 50.7532L1655.34 51.0518L1650.53 51.3449L1645.71 51.6325L1640.9 51.9145L1636.09 52.1909L1631.28 52.4615L1626.47 52.7263L1621.65 52.9854L1616.84 53.2384L1612.03 53.4855L1607.22 53.7266L1602.41 53.9615L1597.59 54.1903L1592.78 54.4129L1587.97 54.6292L1583.16 54.8392L1578.35 55.0428L1573.53 55.24L1568.72 55.4307L1563.91 55.6149L1559.1 55.7925L1554.29 55.9635L1549.47 56.1279L1544.66 56.2855L1539.85 56.4365L1535.04 56.5806L1530.23 56.718L1525.41 56.8485L1520.6 56.9722L1515.79 57.0889L1510.98 57.1987L1506.17 57.3016L1501.35 57.3975L1496.54 57.4863L1491.73 57.5682L1486.92 57.6429L1482.11 57.7107L1477.29 57.7713L1472.48 57.8249L1467.67 57.8713L1462.86 57.9106L1458.05 57.9427L1453.23 57.9678L1448.42 57.9857L1443.61 57.9964L1438.8 58L1433.98 57.9964L1429.17 57.9857L1424.36 57.9678L1419.55 57.9427L1414.74 57.9106L1409.92 57.8713L1405.11 57.8249L1400.3 57.7713L1395.49 57.7107L1390.68 57.6429L1385.86 57.5682L1381.05 57.4863L1376.24 57.3975L1371.43 57.3016L1366.62 57.1987L1361.8 57.0889L1356.99 56.9722L1352.18 56.8485L1347.37 56.718L1342.56 56.5806L1337.74 56.4365L1332.93 56.2855L1328.12 56.1279L1323.31 55.9635L1318.5 55.7925L1313.68 55.6149L1308.87 55.4307L1304.06 55.24L1299.25 55.0428L1294.44 54.8392L1289.62 54.6292L1284.81 54.4129L1280 54.1903L1275.19 53.9615L1270.38 53.7266L1265.56 53.4855L1260.75 53.2384L1255.94 52.9854L1251.13 52.7263L1246.32 52.4615L1241.5 52.1909L1236.69 51.9145L1231.88 51.6325L1227.07 51.3449L1222.26 51.0518L1217.44 50.7532L1212.63 50.4493L1207.82 50.1401L1203.01 49.8257L1198.2 49.5061L1193.38 49.1815L1188.57 48.8519L1183.76 48.5173L1178.95 48.178L1174.14 47.834L1169.32 47.4853L1164.51 47.132L1159.7 46.7743L1154.89 46.4122L1150.08 46.0458L1145.26 45.6752L1140.45 45.3004L1135.64 44.9216L1130.83 44.5389L1126.02 44.1525L1121.2 43.7622L1116.39 43.3683L1111.58 42.9709L1106.77 42.5699L1101.95 42.1657L1097.14 41.7582L1092.33 41.3476L1087.52 40.9339L1082.71 40.5173L1077.89 40.0978L1073.08 39.6756L1068.27 39.2508L1063.46 38.8234L1058.65 38.3936L1053.83 37.9615L1049.02 37.5272L1044.21 37.0908L1039.4 36.6523L1034.59 36.212L1029.77 35.7699L1024.96 35.3262L1020.15 34.8808L1015.34 34.4341L1010.53 33.986L1005.71 33.5366L1000.9 33.0861L996.09 32.6346L991.278 32.1823L986.466 31.7291L981.654 31.2753L976.842 30.8209L972.03 30.3661L967.218 29.9109L962.406 29.4555L957.594 29L952.782 28.5445L947.97 28.0891L943.158 27.6339L938.346 27.1791L933.534 26.7247L928.722 26.2709L923.91 25.8177L919.098 25.3654L914.286 24.9139L909.474 24.4634L904.662 24.014L899.85 23.5659L895.038 23.1192L890.226 22.6738L885.414 22.2301L880.602 21.788L875.79 21.3477L870.978 20.9092L866.165 20.4728L861.353 20.0385L856.541 19.6064L851.729 19.1766L846.917 18.7492L842.105 18.3244L837.293 17.9022L832.481 17.4827L827.669 17.0661L822.857 16.6524L818.045 16.2418L813.233 15.8343L808.421 15.4301L803.609 15.0291L798.797 14.6317L793.985 14.2378L789.173 13.8475L784.361 13.4611L779.549 13.0784L774.737 12.6996L769.925 12.3248L765.113 11.9542L760.301 11.5878L755.489 11.2257L750.677 10.868L745.865 10.5147L741.053 10.166L736.241 9.82196L731.429 9.48267L726.617 9.14813L721.805 8.81854L716.993 8.4939L712.181 8.17432L707.369 7.85992L702.556 7.55072L697.744 7.24677L692.932 6.94824L688.12 6.65509L683.308 6.36749L678.496 6.08551L673.684 5.80914L668.872 5.53851L664.06 5.27368L659.248 5.01465L654.436 4.7616L649.624 4.51453L644.812 4.27344L640 4.03845L635.188 3.80969L630.376 3.5871L625.564 3.37079L620.752 3.16083L615.94 2.95721L611.128 2.76001L606.316 2.56934L601.504 2.38513L596.692 2.20752L591.88 2.0365L587.068 1.87213L582.256 1.71448L577.444 1.56354L572.632 1.41937L567.82 1.28198L563.008 1.15149L558.196 1.02783L553.384 0.911072L548.572 0.80127L543.76 0.698425L538.947 0.602539L534.135 0.513672L529.323 0.431824L524.511 0.357056L519.699 0.289307L514.887 0.228699L510.075 0.17511L505.263 0.128723L500.451 0.0894165L495.639 0.057251L490.827 0.0321655L486.015 0.0142822L481.203 0.00360107L476.391 0L471.579 0.00360107L466.767 0.0142822L461.955 0.0321655L457.143 0.057251L452.331 0.0894165L447.519 0.128723L442.707 0.17511L437.895 0.228699L433.083 0.289307L428.271 0.357056L423.459 0.431824L418.647 0.513672L413.835 0.602539L409.023 0.698425L404.211 0.80127L399.399 0.911072L394.587 1.02783L389.775 1.15149L384.963 1.28198L380.15 1.41937L375.338 1.56354L370.526 1.71448L365.714 1.87213L360.902 2.0365L356.09 2.20752L351.278 2.38513L346.466 2.56934L341.654 2.76001L336.842 2.95721L332.03 3.16083L327.218 3.37079L322.406 3.5871L317.594 3.80969L312.782 4.03845L307.97 4.27344L303.158 4.51453L298.346 4.7616L293.534 5.01465L288.722 5.27368L283.91 5.53851L279.098 5.80914L274.286 6.08551L269.474 6.36749L264.662 6.65509L259.85 6.94824L255.038 7.24677L250.226 7.55072L245.414 7.85992L240.602 8.17432L235.79 8.4939L230.978 8.81854L226.166 9.14813L221.354 9.48267L216.541 9.82196L211.729 10.166L206.917 10.5147L202.105 10.868L197.293 11.2257L192.481 11.5878L187.669 11.9542L182.857 12.3248L178.045 12.6996L173.233 13.0784L168.421 13.4611L163.609 13.8475L158.797 14.2378L153.985 14.6317L149.173 15.0291L144.361 15.4301L139.549 15.8343L134.737 16.2418L129.925 16.6524L125.113 17.0661L120.301 17.4827L115.489 17.9022L110.677 18.3244L105.865 18.7492L101.053 19.1766L96.2407 19.6064L91.4287 20.0385L86.6166 20.4728L81.8046 20.9092L76.9926 21.3477L72.1805 21.788L67.3685 22.2301L62.5565 22.6738L57.7445 23.1192L52.9324 23.5659L48.1204 24.014L43.3083 24.4634L38.4963 24.9139L33.6843 25.3654L28.8723 25.8177L24.0603 26.2709L19.2482 26.7247L14.4362 27.1791L9.62415 27.6339L4.81213 28.0891L0.00012207 28.5445V850H1920V29Z" fill="#F2F2F4"/>
</svg>
