<svg width="1920" height="195" viewBox="0 0 1920 195" fill="none" xmlns="http://www.w3.org/2000/svg">
<path d="M0.5 185V29.5L45 25.5L91.5 21.5L142.5 17C164.369 14.8521 198.5 12.5 198.5 12.5C198.5 12.5 262.24 5.95044 262 6L336 3C336 3 350.942 2.56788 366.157 2.26319C371.956 2.12734 377.592 2.03686 383 2C407.408 1 445.5 0 445.5 0H515.5L564 1L632.5 4L701.5 7L706.234 7.40966L719 8L805.5 16L903.5 24.5L1002 32.5L1118.5 42.5L1225.5 51.5L1336 56.5L1396.75 57.5L1457.5 58.5L1505 58L1552.5 56.5L1645.5 52.5L1745 44.5L1854.5 35.5L1919.5 30V186.5L0.5 185Z" fill="url(#paint0_linear_21_164)"/>
<defs>
<linearGradient id="paint0_linear_21_164" x1="-233.59" y1="-58.8916" x2="1856.41" y2="428.954" gradientUnits="userSpaceOnUse">
<stop offset="0.0851517" stop-color="#041080"/>
<stop offset="1" stop-color="#0926C0"/>
</linearGradient>
</defs>
</svg>
